/* XPM */
static char *result[] = {
/* columns rows colors chars-per-pixel */
"32 32 5 1 ",
"  c #423934",
". c #5A4E44",
"X c #796755",
"o c #A08662",
"O c None",
/* pixels */
"ooooo. oooo ooooo .Xooo oooooX. ",
"XooXX. ..XX XoooX .XXXX XXooXXX ",
".XXX.  ..XX  XXX  .XXXX .XXXXX. ",
" ..   ...   ....   ...   ...... ",
".  oo.   ooo    oo     oo     . ",
".oooooX oooooo oooX. ooooo ooo  ",
".XXooX. XoooXX XXXX. XoooX XX.  ",
" .XXX.. XXXXX. XXXX.  XXX  XX.. ",
"       .XXXXX.  XX.   ... ..... ",
". XXXX  .....  .   . X   X      ",
". .XX..        ..... .XXXX. .XX ",
"   ..  ......   ...   ....   .. ",
".oo  .       oo     oo    ooo . ",
"ooooo. oooo ooooo .Xooo oooooo  ",
"XooXX. ..XX XoooX .XXXX XXoooX  ",
".XXX.  ..XX  XXX  .XXXX .XXXXX .",
"      X .... ...   .XX  .XXXXX. ",
"XXXX .X     X   X .   .  ...... ",
".XX. .XXX. .XXXX. .....         ",
" ..   ...   ....   ...   .....  ",
".  oo.   ooo    oo     oo       ",
".oooooX oooooo oooX. ooooo ooo  ",
".XXooX. XoooXX XXXX. XoooX XX.. ",
" .XXX.. XXXXX. XXXX.  XXX  XX.. ",
"  ...  .XXXXX.  XX.   ... ....  ",
". XXXX  .....  .   . X   X    . ",
". XXX..        ..... .XXXX. ... ",
"  ...  ......   ...   ....      ",
" X    .      X             XXX. ",
" .XXX.. XXXXX. XXXX.  XXX  XX.. ",
"   ..  ......   ...   ....   .. ",
".oo  .       oo     oo    ooo  O"
};
