/* XPM */
static char *_95e9c81ace44d2cb6418945ce44cb11jlknz5wyv6VF1r5L[] = {
/* columns rows colors chars-per-pixel */
"32 32 4 1 ",
"  c None",
". c black",
"X c #FF8F00",
"o c #FFB300",
/* pixels */
"                                ",
"                                ",
"                                ",
"                 .......        ",
"                .XXXoooo.       ",
"               .Xoooooooo.      ",
"              .Xoooooooooo.     ",
"              .Xooo...Xooo.     ",
"              .Xoo.   .Xoo.     ",
"              .Xoo.   .Xoo.     ",
"              .Xoo.   .Xoo.     ",
"              .Xooo...Xooo.     ",
"               .Xooooooooo.     ",
"              .Xooooooooo.      ",
"             .Xoo.XXXooo.       ",
"            .Xoo. ......        ",
"           .Xoo.                ",
"          .Xoo.                 ",
"         .Xoo.                  ",
"        .Xoo.                   ",
"       .XoooX.                  ",
"      .XoooooX.                 ",
"     .Xoooo..X.                 ",
"    .Xoooo.  .                  ",
"   .XooooXX.                    ",
"   .Xooo..X.                    ",
"    .Xo.  .                     ",
"     .XX.                       ",
"      .X.                       ",
"       .                        ",
"                                ",
"                                "
};
