/* XPM */
static char *_5f361836ec74fdc87770bc9dbf8d22deGZIQUrToPgyj08E[] = {
/* columns rows colors chars-per-pixel */
"16 16 3 1 ",
"  c None",
". c black",
"X c #FFB300",
/* pixels */
"                ",
"                ",
"                ",
"                ",
"                ",
"          ...   ",
"   .......XXX.  ",
"   .XXXXXXX.X.  ",
"   .X.X...XXX.  ",
"   .. ..  ...   ",
"                ",
"                ",
"                ",
"                ",
"                ",
"                "
};
