/* XPM */
static char *fb5291ab15154d13b1c2f402769a2b2aNNLwrFASXaEdoeFD[] = {
/* columns rows colors chars-per-pixel */
"48 32 4 1 ",
"  c None",
". c black",
"X c #FF8F00",
"o c #FFB300",
/* pixels */
"                                                ",
"                                                ",
"                                                ",
"                 .......                        ",
"                .XXXoooo.                       ",
"               .Xoooooooo.                ...   ",
"              .Xoooooooooo.        .......ooo.  ",
"              .Xooo...Xooo.        .ooooooo.o.  ",
"              .Xoo.   .Xoo.        .o.o...ooo.  ",
"              .Xoo.   .Xoo.        .. ..  ...   ",
"              .Xoo.   .Xoo.                     ",
"              .Xooo...Xooo.                     ",
"               .Xooooooooo.                     ",
"              .Xooooooooo.                      ",
"             .Xoo.XXXooo.                       ",
"            .Xoo. ......                        ",
"           .Xoo.                                ",
"          .Xoo.                                 ",
"         .Xoo.                                  ",
"        .Xoo.                                   ",
"       .XoooX.                            ...   ",
"      .XoooooX.                          .ooo.  ",
"     .Xoooo..X.                    ......oo.oo. ",
"    .Xoooo.  .                    .ooooooo. .o. ",
"   .XooooXX.                      .o.o...oo.oo. ",
"   .Xooo..X.                       . .   .ooo.  ",
"    .Xo.  .                               ...   ",
"     .XX.                                       ",
"      .X.                                       ",
"       .                                        ",
"                                                ",
"                                                "
};
