/* XPM */
static char *result[] = {
/* columns rows colors chars-per-pixel */
"128 32 6 1 ",
"  c #04193F",
". c #780BF7",
"X c #D840FB",
"o c #F489F6",
"O c #FCFEFE",
"+ c None",
/* pixels */
"++++++++++++++++++++++++++++++++++++++++++++++++++++++++++++++++++++++++++++++++++++++++++++++++++++++++++++++++++++++++++++++++",
"++++++++++++++++++++++++++++++++++++++++++++++++++++++++++++++++++++++++++++++++++++++++++++++++++++++++++++++++++++++++++++++++",
"++++++++++++++++++++++++++++++++++++++++++++++++++++++++++++++++++++++++++++++++++++++++++++++++++++++++++++++++++++++++++++++++",
"++++++++++++++++++++++++++++++++++++++++   +++   +++++++++++++++++++++++++  ++++++++++++++++++++++++++++++   +++++++++++++++++++",
"++++++++++  +++++  ++++++++++++++++++++ OOO   OOO  ++++++++++++++++++++++ oo +++  +++++++++++++++++++++++ ooo +++   ++++++++++++",
"+++++++++ oo +++ .. +++++++++++++++++++ OOOOO OOOOO ++++++++++++++++++++ oooo + ..  +++++++++++++++++++++ ooo ++ ... +++++++++++",
"++++++++ oooo + ... +++++++++++++++++++ OOOOOOOOOOO ++++++++++++++++++++ ooooo ..... ++++++++++++++++++++ oooo + ... +++++++++++",
"++++++++ ooooo  .... +++++++++++++++++++ OOOOOOOOOOO +++++++++++++++++++ ooooXXXX... ++++++++++++++++++++ oooo   ... +++++++++++",
"+++++++++ oooXXXX... ++++++++++++++++++ OOOOOOOOOOOO ++++++++++++++++++++ XoooooXXX.. +++++++++++++++++++ oooXXXX.... ++++++++++",
"+++++++++ XoooooXXX.. +++++++++++++++++ OOOOOOOOOOOOO ++++++++++++++++++ XoooooooXXX. +++++++++++++++++++ XoooooXXX.. ++++++++++",
"++++++++ XoooooooXXX. ++++++++++++++++ OOOOOOOOOOOOOO ++++++++++++++++++ oooooOOOOOO.. +++++++++++++++++ XoooooooXXX. ++++++++++",
"++++++++ oooooOOOOOO.. +++++++++++++++ OOOOOOOOOOOOOOO ++++++++++++++++ XooooOOOOOOOO. +++++++++++++++++ oooooOOOOOO.. +++++++++",
"+++++++ XooooOOOOOOOO. +++++++++++++++ OOOOOOOOOOOOOOO ++++++++++++++++ ooooOO   OOO  . +++++++++++++++ XooooOOOOOOOO. +++++++++",
"+++++++ ooooOO   OOO  . ++++++++++++++ OOOOOOOOOOOOOOO ++++++++++++++++ ooooO  OO O  O  +++++++++++++++ ooooOO   OOO  . ++++++++",
"+++++++ ooooO  OO O  O  ++++++++++++++ OOOOOOOOOOOOOOO ++++++++++++++++ ooooO  OO O  O  +++++++++++++++ ooooO  OO O  O  ++++++++",
"+++++++ ooooO  OO O  O  ++++++++++++++ OOOOOOOOOOOOOOO ++++++++++++++++ ooooO     O     +++++++++++++++ ooooO     O     ++++++++",
"+++++++ ooooO     O     +++++++++++++++ OOOOOOOOOOOOO +++++++++++++++++ XooooO   OOO  . +++++++++++++++ ooooO     O     ++++++++",
"+++++++ XooooO   OOO  . +++++++++++++++ OOOOOOOOOOOOO ++++++++++++++++++ ooooOOOOOOOOO ++++++++++++++++ XooooO   OOO  . ++++++++",
"++++++++ ooooOOOOOOOOO +++++++++++++++++ OOOOOOOOOOO +++++++++++++++++++ XooooXOOOOOO. +++++++++++++++++ ooooOOOOOOOOO +++++++++",
"++++++++ XooooXOOOOOO. ++++++++++++++++  OOOOOOOOOO +++++++++++++++++++++ oooooXXX... ++++++++++++++++++ XooooXOOOOOO. +++++++++",
"+++++++++ oooooXXX... ++++++++++++++++ OOOOOOOOOOOOO ++++++++++++++++++++ ooooooOOO. ++++++++++++++++++++ oooooXXX... ++++++++++",
"+++++++++ ooooooOOO. ++++++++++++++++ OOOOOOOOOOOOOOO ++++++++++++++++++ oooo.oOOOO.. +++++++++++++++++++ ooooooOOO. +++++++++++",
"++++++++ oooo.oOOOO.. ++++++++++++++ OOOOOOOOOOOOOOOOO +++++++++++++++++ ooo.XoOOOOO. ++++++++++++++++++ oooo.oOOOO.. ++++++++++",
"++++++++ oooo.oOOOOO. +++++++++++++ OOOOOOOOOOOOOOOOOOO +++++++++++++++ oooo.oOOOOOO.. +++++++++++++++++ ooo.XoOOOOO. ++++++++++",
"+++++++ oooo.XOOOOOO.. ++++++++++++ OOOOOOOOOOOOOOOOOOO +++++++++++++++ ooo.XoOOOOOO.. ++++++++++++++++ oooo.XOOOOOO.. +++++++++",
"+++++++ oooo.XOOOOOO.. ++++++++++++ OOOOOOOOOOOOOOO OOO +++++++++++++++ ooo.ooOOOOOO . ++++++++++++++++ ooo.XoOOOOOO.. +++++++++",
"+++++++ ooo.XoOOOOOO.. +++++++++++++     OOOOOOOOOO    +++++++++++++++++ ..XoooOOOO.  +++++++++++++++++ ooo.XoOOOOOO . +++++++++",
"++++++++ ..XXooOOOO.  ++++++++++++++++++ OOOOOOOOOO +++++++++++++++++++++ oooooXXX.. +++++++++++++++++++  .XoooOOOO.  ++++++++++",
"+++++++++ XXoooXXX.. +++++++++++++++++++ OOOOOOOOOO +++++++++++++++++++++ oooo  .... ++++++++++++++++++++ XooooXXX.. +++++++++++",
"+++++++++ oooo  .... ++++++++++++++++++ OOOOO   OOO ++++++++++++++++++++ ooooo  ... +++++++++++++++++++++ oooo  .... +++++++++++",
"+++++++++ oooo  ... +++++++++++++++++++ OOOO ++ OOO ++++++++++++++++++++ oooo + ... +++++++++++++++++++++ oooo  ... ++++++++++++",
"+++++++++ ooo + ... +++++++++++++++++++ OOO +++ OOO ++++++++++++++++++++ ooo ++ ... +++++++++++++++++++++ ooo + ... ++++++++++++"
};
