/* XPM */
static char *result[] = {
/* columns rows colors chars-per-pixel */
"192 32 6 1 ",
"  c #04193F",
". c #780BF7",
"X c #D840FB",
"o c #F489F6",
"O c #FCFEFE",
"+ c None",
/* pixels */
"++++++++++++++++++++++++++++++++++++++++++++++++++++++++++++++++++++++++++++++++++++++++++++++++++++++++++++++++++++++++++++++++++++++++++++++++++++++++++++++++++++++++++++++++++++++++++++++++",
"++++++++++++++++++++++++++++++++++++++++++++++++++++++++++++++++++++++++++++++++++++++++++++++++++++++++++++++++++++++++++++++++++++++++++++++++++++++++++++++++++++++++++++++++++++++++++++++++",
"++++++++++++++++++++++++++++++++++++++++++++++++++++++++++++++++++++++++++++++++++++++++++++++++++++++++++++++++++++++++++++++++++++++++++++++++++++++++++++++++++++++++++++++++++++++++++++++++",
"++++++++++++++++++++++++++++++++++++++++++++++++++++++++++++++++++++++++++++++++++++++++++++++++++++++++++++++++++++++++++++++++++++++++++++++++++++++++++++++++++++++++++++++++++++++++++++++++",
"+++++++++++++++++++++++++++++++++++++++++++++  +++++  ++++++++++++++++++++++   ++++++++++++++++++++++++++++++++++++++++++++++++++++++++++++++  +++++  ++++++++++++++++++++++   +++++++++++++++++",
"+++++++++++++   ++++   +++++++++++++++++++++ oo +++ .. ++++++++++++++++++++ ooo  +   ++++++++++++++++++++++++   ++++   +++++++++++++++++++++ oo +++ .. ++++++++++++++++++++ ooo  +   +++++++++++",
"++++++++++++ ooo ++ ... +++++++++++++++++++ oooo + ... ++++++++++++++++++++ ooooo ...  +++++++++++++++++++++ ooo ++ ... +++++++++++++++++++ oooo + ... ++++++++++++++++++++ ooooo ...  +++++++++",
"++++++++++++ ooo ++ ... +++++++++++++++++++ ooooo  .... +++++++++++++++++++ ooooXXXX... ++++++++++++++++++++ ooo ++ ... +++++++++++++++++++ ooooo  .... +++++++++++++++++++ ooooXXXX... ++++++++",
"++++++++++++ oooo   ... ++++++++++++++++++++ oooXXXX... ++++++++++++++++++++ XXooooXXX.. +++++++++++++++++++ oooo   ... ++++++++++++++++++++ oooXXXX... ++++++++++++++++++++ XXooooXXX.. +++++++",
"++++++++++++ oooXXXX.... +++++++++++++++++++ XoooooXXX.. ++++++++++++++++++ XoooooooXXX. +++++++++++++++++++ oooXXXX.... +++++++++++++++++++ XoooooXXX.. ++++++++++++++++++ XoooooooXXX. +++++++",
"+++++++++++ XooooooXXX.. ++++++++++++++++++ XoooooooXXX. ++++++++++++++++++ oooooOOOOOO.. +++++++++++++++++ XooooooXXX.. ++++++++++++++++++ XoooooooXXX. ++++++++++++++++++ oooooOOOOOO.. ++++++",
"+++++++++++ XoooooooXXX. ++++++++++++++++++ oooooOOOOOO.. ++++++++++++++++ XooooOOOOOOOO. +++++++++++++++++ ooooooooXXX. ++++++++++++++++++ oooooOOOOOO.. ++++++++++++++++ XooooOOOOOOOO. ++++++",
"+++++++++++ oooooOOOOOO.. ++++++++++++++++ XooooOOOOOOOO. ++++++++++++++++ ooooOO   OOO  . ++++++++++++++++ oooooOOOOOO.. ++++++++++++++++ XooooOOOOOOOO. ++++++++++++++++ ooooOO   OOO  . +++++",
"++++++++++ XooooOOOOOOOO. ++++++++++++++++ ooooOO   OOO  . +++++++++++++++ ooooO  OO O  O  +++++++++++++++ XooooOOOOOOOO. ++++++++++++++++ ooooOO   OOO  . +++++++++++++++ ooooO  OO O  O  +++++",
"++++++++++ ooooOO   OOO  . +++++++++++++++ ooooO  OO O  O  +++++++++++++++ ooooO  OO O  O  +++++++++++++++ ooooOO   OOO  . +++++++++++++++ ooooO  OO O  O  +++++++++++++++ ooooO  OO O  O  +++++",
"++++++++++ ooooO  OO O  O  +++++++++++++++ ooooO  OO O  O  +++++++++++++++ ooooO  OO O  O  +++++++++++++++ ooooO  OO O  O  +++++++++++++++ ooooO  OO O  O  +++++++++++++++ ooooO  OO O  O  +++++",
"++++++++++ ooooO     O     +++++++++++++++ ooooO     O     +++++++++++++++ XooooO   OOO  . +++++++++++++++ ooooO     O     +++++++++++++++ ooooO     O     +++++++++++++++ XooooO   OOO  . +++++",
"++++++++++ ooooO     O     +++++++++++++++ XooooO   OOO  . ++++++++++++++++ ooooOOOOOOOOO ++++++++++++++++ ooooO     O     +++++++++++++++ XooooO   OOO  . ++++++++++++++++ ooooOOOOOOOOO ++++++",
"++++++++++ XooooO   OOO  . ++++++++++++++++ ooooOOOOOOOOO +++++++++++++++++ XooooXOOOOOO. ++++++++++++++++ XooooO   OOO  . ++++++++++++++++ ooooOOOOOOOOO +++++++++++++++++ XooooXOOOOOO. ++++++",
"+++++++++++ ooooOOOOOOOOO +++++++++++++++++ XooooXOOOOOO. ++++++++++++++++++ oooooXXX... ++++++++++++++++++ ooooOOOOOOOOO +++++++++++++++++ XooooXOOOOOO. ++++++++++++++++++ oooooXXX... +++++++",
"+++++++++++ XooooXOOOOOO. +++++++++++++++++ ooooooXXX... +++++++++++++++++++ ooooXOO... +++++++++++++++++++ XooooXOOOOOO. ++++++++++++++++++ oooooXXX... ++++++++++++++++++ oooooXOO... ++++++++",
"++++++++++++ oooooXXX... ++++++++++++++++++ oooooXXOO... +++++++++++++++++++ oooooXXO. .  ++++++++++++++++++ oooooXXX... +++++++++++++++++++ ooooXXO.... ++++++++++++++++++ ooooooXXO...  ++++++",
"++++++++++++ ooooXXXXX..    +++++++++++++++ oooooooXXX...   ++++++++++++++++ oooooooXX....  ++++++++++++++++ ooooXXXXX..    ++++++++++++++++ ooooooXXX...   +++++++++++++++ ooooooooXX....  ++++",
"++++++++++++ oooooooooX..... ++++++++++++++ ooooooooooX..... +++++++++++++++ oooooooooX..... +++++++++++++++ oooooooooX..... +++++++++++++++ oooooooooX..... ++++++++++++++ ooooooooooX..... +++",
"+++++++++++ ooooooooooX..... ++++++++++++++ ooooooooooX..... ++++++++++++++ oooXXoooooX..... +++++++++++++++ oooooooooX..... ++++++++++++++ ooooooooooX..... ++++++++++++++ oooXXoooooX..... +++",
"+++++++++++ oooooooooX..... ++++++++++++++ ooooXXXoooX..... +++++++++++++++ ooooOXXooX  ... +++++++++++++++ oooooooooX..... +++++++++++++++ oooXXXoooX..... +++++++++++++++ oooOOXXooX  ... ++++",
"++++++++++ ooooXXXXXX      +++++++++++++++ oooooOOXXX      ++++++++++++++++ oooo.OOXX ++   ++++++++++++++++ oooXXXXXX      ++++++++++++++++ ooooOOXXX      ++++++++++++++++ ooooOOOXX. +   +++++",
"++++++++++ ooooOOOOOO ++++++++++++++++++++ ooooo.OOO. +++++++++++++++++++++ oooo.X.. ++++++++++++++++++++++ oooooOOOO +++++++++++++++++++++ oooo.OOO. ++++++++++++++++++++ ooooooXX... +++++++++",
"+++++++++ ooooooOOOO. ++++++++++++++++++++ oooo.XX.. ++++++++++++++++++++++ oooo ... ++++++++++++++++++++++ ooooo.OO. +++++++++++++++++++++ oooo.XX.. ++++++++++++++++++++ ooooo ..... +++++++++",
"+++++++++ oooooXXX... ++++++++++++++++++++ oooo .... ++++++++++++++++++++++ oooo .. +++++++++++++++++++++++ oooo.XX. ++++++++++++++++++++++ oooo .... ++++++++++++++++++++ oooo + .... +++++++++",
"+++++++++ oooo   .... +++++++++++++++++++++     .... ++++++++++++++++++++++ oooo .. +++++++++++++++++++++++ oooo ... ++++++++++++++++++++++ oooo     +++++++++++++++++++++ oooo + .... +++++++++",
"+++++++++ oooo + .... ++++++++++++++++++++++++++ ... +++++++++++++++++++++++    .. ++++++++++++++++++++++++ oooo .. +++++++++++++++++++++++ oooo +++++++++++++++++++++++++ oooo ++    ++++++++++"
};
