/* XPM */
static char *result[] = {
/* columns rows colors chars-per-pixel */
"128 32 6 1 ",
"  c #04193F",
". c #780BF7",
"X c #D840FB",
"o c #F489F6",
"O c #FCFEFE",
"+ c None",
/* pixels */
"++++++++++++++++++++++++++++++++++++++++++++++++++++++++++++++++++++++++++++++++++++++++++++++++++++++++++++++++++++++++++++++++",
"++++++++++++++++++++++++++++++++++++++++++++++++++++++++++++++++++++++++++++++++++++++++++++++++++++++++++++++++++++++++++++++++",
"++++++++++++++++++++++++++++++++++++++++++++++++++++++++++++++++++++++++++++++++++++++++++++++++++++++++++++++++++++++++++++++++",
"++++++++++++++++++++++++++++++++++++++++++++++++++++++++++++++++++++++++++++++++++++++++++++++++++++++++++++++++++++++++++++++++",
"++++++++++  +++++  ++++++++++++++++++++++++++++++++++++++++++++++++++++++++++++++++++++++++++++++++++++++    +++   +++++++++++++",
"+++++++++ oo +++ .. +++++++++++++++++++++++++++++++++++++++++++++++++++++      +   +++++++++++++++++++++ oooo + ... ++++++++++++",
"++++++++ oooo + ... +++++++++++++++++++++   ++++   +++++++++++++++++++++ oooooo ...  +++++++++++++++++++ ooooo ..... +++++++++++",
"++++++++ ooooo  .... +++++++++++++++++++ ooo ++ ... ++++++++++++++++++++ oooooXXXX... ++++++++++++++++++ ooooXXXX... +++++++++++",
"+++++++++ oooXXXX... +++++++++++++++++++ ooo ++ ... +++++++++++++++++++++  XXooooXXX.. ++++++++++++++++++ XoooooXXX.. ++++++++++",
"+++++++++ XoooooXXX.. ++++++++++++++++++ oooo   ... +++++++++++++++++++++ XoooooooXXX. +++++++++++++++++ XoooooooXXX. ++++++++++",
"++++++++ XoooooooXXX. ++++++++++++++++++ oooXXXX.... ++++++++++++++++++++ oooooOOOOOO.. ++++++++++++++++ oooooOOOOOO.. +++++++++",
"++++++++ oooooOOOOOO.. +++++++++++++++++ XoooooXXX.. +++++++++++++++++++ XooooOOOOOOOO. +++++++++++++++ XooooOOOOOOOO. +++++++++",
"+++++++ XooooOOOOOOOO. ++++++++++++++++ XoooooooXXX. +++++++++++++++++++ ooooOO   OOO  . ++++++++++++++ ooooOO   OOO  . ++++++++",
"+++++++ ooooOO   OOO  . +++++++++++++++ oooooOOOOOO.. ++++++++++++++++++ ooooO  OO O  O  ++++++++++++++ ooooO  OO O  O  ++++++++",
"+++++++ ooooO  OO O  O  ++++++++++++++ XooooOOOOOOOO. ++++++++++++++++++ ooooO  OO O  O  ++++++++++++++ ooooO  OO O  O  ++++++++",
"+++++++ ooooO  OO O  O  ++++++++++++++ ooooOO   OOO  . +++++++++++++++++ ooooO  OO O  O  ++++++++++++++ ooooO  OO O  O  ++++++++",
"+++++++ ooooO     O     ++++++++++++++ ooooO  OO O  O  +++++++++++++++++ XooooO   OOO  . ++++++++++++++ XooooO   OOO  . ++++++++",
"+++++++ XooooO   OOO  . ++++++++++++++ ooooO     O     ++++++++++++++++++ ooooOOOOOOOOO ++++++++++++++++ ooooOOOOOOOOO +++++++++",
"++++++++ ooooOOOOOOOOO +++++++++++++++ ooooO     O     ++++++++++++++++++ XooooXOOOOOO. +      +++++++++ XooooXOOOOOO. +++++++++",
"++++++++ XooooXOOOOOO. +++++++++++++++ XooooO   OOO  . ++++++++++++++++++ ooooooXXX...   ...... +++++++++ oooooXXX... ++++++++++",
"+++++++++ oooooXXX... +++++++++++++++++ ooooOOOOOOOOO ++++++++++++++++++ ooooooooOOO........... +++++++++ ooooooOOO.. ++++++++++",
"+++++++++ ooooooOOO. ++++++++++++++++++ XooooXOOOOOO. +++++++++++++++++ ooooo.ooOOOO........... ++++++++ oooo.oOOOO... +++++++++",
"++++++++ oooo.oOOOO.. ++++++++++++++++++ oooooXXX... ++++++++++++++++++ oooo.XooOOOOO......... +++++++++ oooo.oOOOOO... ++++++++",
"++++++++ oooo.oOOOOO. ++++++++++++++++++ oooooOOOO.. +++++++++++++++++ oooo.XXoOOOOOO......... ++++++++ oooo.XOOOOOO.... +++++++",
"+++++++ oooo.XOOOOOO.. ++++++++++++++++ oooo.oOOOOO. +++++++++++++++++ oooo.XooOOOOOO.    ... +++++++++ oooo.XOOOOOO..... ++++++",
"+++++++ oooo.XOOOOOO.. ++++++++++++++++ oooo.OOOOOO. +++++++++++++++++ ooo.XXooOOOOOO ++++   ++++++++++ oooo.XOOOOOO .... ++++++",
"+++++++ ooo.XoOOOOOO.. ++++++++++++++++ oooo.OOOOOO. ++++++++++++++++++   .XoooOOOOOO +++++++++++++++++ ooo.XoOOOOOO  ... ++++++",
"++++++++ ..XXooOOOO.  +++++++++++++++++ oooo.OOOOOO ++++++++++++++++++++++ oooooOOOO. ++++++++++++++++++ ..XXooOOOO. +   +++++++",
"+++++++++ XXoooXXX.. ++++++++++++++++++ ooo.XoOOOO. +++++++++++++++++++++ ooooooXXX.. +++++++++++++++++++ XXoooXXX.. +++++++++++",
"+++++++++ oooo  .... +++++++++++++++++++ ..XooXXX.. +++++++++++++++++++++ oooo   ... ++++++++++++++++++++ oooo  .... +++++++++++",
"+++++++++ oooo  ... ++++++++++++++++++++ oooo  .... ++++++++++++++++++++ oooo + .... ++++++++++++++++++++ oooo  ... ++++++++++++",
"+++++++++ ooo + ... ++++++++++++++++++++ ooo ++ ... ++++++++++++++++++++ ooo ++ ... +++++++++++++++++++++ ooo + ... ++++++++++++"
};
