/* XPM */
static char *result[] = {
/* columns rows colors chars-per-pixel */
"128 32 6 1 ",
"  c #04193F",
". c #780BF7",
"X c #D840FB",
"o c #F489F6",
"O c #FCFEFE",
"+ c None",
/* pixels */
"++++++++++++++++++++++++++++++++++++++++++++++++++++++++++++++++++++++++++++++++++++++++++++++++++++++++++++++++++++++++++++++++",
"++++++++++++++++++++++++++++++++++++++++++++++++++++++++++++++++++++++++++++++++++++++++++++++++++++++++++++++++++++++++++++++++",
"++++++++++++++++++++++++++++++++++++++++++++++++++++++++++++++++++++++++++++++++++++++++++++++++++++++++++++++++++++++++++++++++",
"++++++++++++++++++++++++++++++++++++++++++++++++++++++++++++++++++++++++++  ++++++++++++++++++++++++++++++   +++++++++++++++++++",
"++++++++++  +++++  ++++++++++++++++++++++   +++   +++++++++++++++++++++++ oo +++  +++++++++++++++++++++++ ooo +++   ++++++++++++",
"+++++++++ oo +++ .. ++++++++++++++++++++ ooo   ...  ++++++++++++++++++++ oooo + ..  +++++++++++++++++++++ ooo ++ ... +++++++++++",
"++++++++ oooo + ... ++++++++++++++++++++ ooooo ..... +++++++++++++++++++ ooooo ..... ++++++++++++++++++++ oooo + ... +++++++++++",
"++++++++ ooooo  .... +++++++++++++++++++ ooooXXXX... +++++++++++++++++++ ooooXXXX... ++++++++++++++++++++ oooo   ... +++++++++++",
"+++++++++ oooXXXX... ++++++++++++++++++++ XoooooXXX.. +++++++++++++++++++ XoooooXXX.. +++++++++++++++++++ oooXXXX.... ++++++++++",
"+++++++++ XoooooXXX.. ++++++++++++++++++ XoooooooXXX. ++++++++++++++++++ XoooooooXXX. +++++++++++++++++++ XoooooXXX.. ++++++++++",
"++++++++ XoooooooXXX. ++++++++++++++++++ oooooOOOOOO.. +++++++++++++++++ oooooOOOOOO.. +++++++++++++++++ XoooooooXXX. ++++++++++",
"++++++++ oooooOOOOOO.. ++++++++++++++++ XooooOOOOOOOO. ++++++++++++++++ XooooOOOOOOOO. +++++++++++++++++ oooooOOOOOO.. +++++++++",
"+++++++ XooooOOOOOOOO. ++++++++++++++++ ooooOO   OOO  . +++++++++++++++ ooooOO   OOO  . +++++++++++++++ XooooOOOOOOOO. +++++++++",
"+++++++ ooooOO   OOO  . +++++++++++++++ ooooO  OO O  O  +++++++++++++++ ooooO  OO O  O  +++++++++++++++ ooooOO   OOO  . ++++++++",
"+++++++ ooooO  OO O  O  +++++++++++++++ ooooO  OO O  O  +++++++++++++++ ooooO  OO O  O  +++++++++++++++ ooooO  OO O  O  ++++++++",
"+++++++ ooooO  OO O  O  +++++++++++++++ ooooO  OO O  O  +++++++++++++++ ooooO     O     +++++++++++++++ ooooO     O     ++++++++",
"+++++++ ooooO     O     +++++++++++++++ XooooO   OOO  . +++++++++++++++ XooooO   OOO  . +++++++++++++++ ooooO     O     ++++++++",
"+++++++ XooooO   OOO  . ++++++++++++++++ ooooOOOOOOOO. +++++++++++++++++ ooooOOOOOOOOO ++++++++++++++++ XooooO   OOO  . ++++++++",
"++++++++ ooooOOOOOOOOO +++++++++++++++++ XooooXOOOOOO. +++++++++++++++++ XooooXOOOOOO. +++++++++++++++++ ooooOOOOOOOOO +++++++++",
"++++++++ XooooXOOOOOO. ++++++++++++++++++ oooooXXX... +++++++++++++++++++ oooooXXX... ++++++++++++++++++ XooooXOOOOOO. +++++++++",
"+++++++++ oooooXXX... +++++++++++++++++++ ooooooOOO. ++++++++++++++++++++ ooooooOOO. ++++++++++++++++++++ oooooXXX... ++++++++++",
"+++++++++ ooooooOOO. ++++++++++++++++++++ ooo.oOOOO. +++++++++++++++++++ oooo.oOOOO.. ++++++++++++++++++ oooooooOOO. +++++++++++",
"++++++++ oooo.oOOOO.. ++++++++++++++++++ oooo.oOOOOO. +++++++++++++++++ oooo.XoOOOOO.. +++++++++++++++  ooooo.oOOOO.. ++++++++++",
"++++++++ oooo.oOOOOO. ++++++++++++++++++ ooo.XOOOOOO. ++++++++++++++++ oooo.XoOOOOOO... +++++++++++++ oooooo.XoOOOOO..  ++++++++",
"+++++++ oooo.XOOOOOO.. ++++++++++++++++ oooo.XOOOOOO.. +++++++++++++++ oooo.XoOOOOOO... +++++++++++++ ooooo.XoOOOOOO.... +++++++",
"+++++++ oooo.XOOOOOO.. ++++++++++++++++ ooo.XoOOOOOO.. +++++++++++++++ ooo.XooOOOOOO .. +++++++++++++ oooo.XooOOOOOO.... +++++++",
"+++++++ ooo.XoOOOOOO.. ++++++++++++++++ ooo.XoOOOOOO.. ++++++++++++++++  .XXoooOOOO.   +++++++++++++++   .XXooOOOOOO ... +++++++",
"++++++++ ..XXooOOOO.  ++++++++++++++++++ ..XoooOOOO.  +++++++++++++++++++ oooooXXX.. ++++++++++++++++++++ XooooOOOO.    ++++++++",
"+++++++++ XXoooXXX.. ++++++++++++++++++++ XXoooXXX.. ++++++++++++++++++++ oooo  .... ++++++++++++++++++++ oooooXXX.. +++++++++++",
"+++++++++ oooo  .... ++++++++++++++++++++ oooo  ... +++++++++++++++++++++ oooo  ... +++++++++++++++++++++ oooo  .... +++++++++++",
"+++++++++ oooo  ... +++++++++++++++++++++ ooo + ... +++++++++++++++++++++ ooo + ... +++++++++++++++++++++ oooo  ... ++++++++++++",
"+++++++++ ooo + ... +++++++++++++++++++++ ooo + ... +++++++++++++++++++++ ooo + ... +++++++++++++++++++++ ooo + ... ++++++++++++"
};
