/* XPM */
static char *result[] = {
/* columns rows colors chars-per-pixel */
"256 32 6 1 ",
"  c #04193F",
". c #780BF7",
"X c #D840FB",
"o c #F489F6",
"O c #FCFEFE",
"+ c None",
/* pixels */
"++++++++++++++++++++++++++++++++++++++++++++++++++++++++++++++++++++++++++++++++++++++++++++++++++++++++++++++++++++++++++++++++++++++++++++++++++++++++++++++++++++++++++++++++++++++++++++++++++++++++++++++++++++++++++++++++++++++++++++++++++++++++++++++++",
"+++++++++++++++++++++++++++++++++++++   +++   ++++++++++++++++++++++++++++++++++++++++++++++++++++++++++++++++++++++++++++++++++++++++++++++++++++++++++++++++++++++++++++++++++++++++++++++++++++++++++++++++++++++++++++++++++++++++++++++++++++++++++++++++++",
"++++++++++++++++++++++++++++++++++++ ooo + ... +++++++++++++++++++++++++++++++++++++++++++++++++++++++++++++++++++++++++++++++++++++++++++++++++++++++++++++++++++++++++++++++++++++++++++++++++++++++++++++++++++++++++++++++++++++++++++++++++++++++++++++++++",
"++++++++   +++   +++++++++++++++++++ ooo + ... +++++++++++++++++++++++++++++++++++++++++++++++++++++++++++++++++++++++++++++++++++++++++++++++++++++++++++++++++++++++++++++++++++++++++++++++++++++++++++++++++++++++++++++++++++++++++++++++++++++++++++++++++",
"+++++++ ooo   ...  +++++++++++++++++ ooo  .... +++++++++++++++++++++++++++++++++++++++++++++++++++++++++++++++++++++++++++++++++++++++++++++++++++++++++++++++++++++++++++++++++++++++++++++++++++++++++++++++++++++++++++++++++++++++++++++++++++++++++++++++++",
"+++++++ ooooo ..... ++++++++++++++++ ooo .....  ++++++++++++++++++++++++++++++++++++++++++++++++++++++++++++++++++++++++++++++++++++++++++++++++++++++++++++++++++++++++++++++++++++++++++++++++++++++++++++++++++++++++++++++++++++++++++++++++++++++++++++++++",
"+++++++ ooooXXXX... +++++++++++++++++ oXXXX..... +++++++++++++++++++++++++++++++++++++++++++++++++++++++++++++++++++++++++++++++++++++++++++++++++++++++++++++++++++++++++++++++++++++++++++++++++++++++++++++++++++++++++++++++++++++++++++++++++++++++++++++++",
"++++++++ XoooooXXX.. ++++++++++++++++ oooOOOOOO.. ++++++++++++++++++++++++++++++++++++++++++++++++++++++++++++++++++++++++++++++++++++++++++++++++++++++++++++++++++++++++++++++++++++++++++++++++++++++++++++++++++++++++++++++++++++++++++++++++++++++++++++++",
"+++++++ XoooooooXXX. +++++++++++++++ oooOOOOOOOO. ++++++++++++++++++++++++++++++++++++++++++++++++++++++++++++++++++++++++++++++++++++++++++++++++++++++++++++++++++++++++++++++++++++++++++++++++++++++++++++++++++++++++++++++++++++++++++++++++++++++++++++++",
"+++++++ oooooOOOOOO.. ++++++++++++++ ooOO   OOO  . +++++++++++++++++++++++++++++++++++++++++++++++++++++++++++++++++++++++++++++++++++++++++++++++++++++++++++++++++++++++++++++++++++++++++++++++++++++++++++++++++++++++++++++++++++++++++++++++++++++++++++++",
"++++++ XooooOOOOOOOO. ++++++++++++++ ooO  OO O  O  +++++++++++++++++++++++++++++++++++++++++++++++++++++++++++++++++++++++++++++++++++++++++++++++++++++++++++++++++++++++++++++++++++++++++++++++++++++++++++++++++++++++++++++++++++++++++++++++++++++++++++++",
"++++++ ooooOO   OOO  . +++++++++++++ ooO  OO O  O  +++++++++++++++++++++  ++++++++++++++++++++++++++++++++++++++++++++++++++++++++++++++++++++++++++++++++++++++++++++++++++++++++++++++++++++++++++++++++++++++++++++++++++++++++++++++++++++++++++++++++++++++",
"++++++ ooooO  OO O  O  +++++++++++++ ooOO   OOO  . +++++++++++++++++  + OO +++++++++++++++++++++++++++++++++++++++++++++++++++++++++++++++++++++++++++++++++++++++++++++++++++++++++++++++++++++++++++++++++++++++++++++++++++++++++++++++++++++++++++++++++++++",
"++++++ ooooO  OO O  O  +++++++++++++ oooOOOOOOOOO. ++++++++++++++++ OO  OOO  +++++++++++++++++++++++++++++++++++++++++++++++++++++++++++++++++++++++++++++++++++++++++++++++++++++++++++++++++++++++++++++++++++++++++++++++++++++++++++++++++++++++++++++++++++",
"++++++ ooooO  OO O  O  ++++++++++++++ oooOOOOOOOO +++++++++++++++++ OOOOOOOOO  +++++++++++++++++++++++++++++++++++++++++++++++++++++++++++++++++++++++++++++++++++++++++++++++++++++++++++++++++++++++++++++++++++++++++++++++++++++++++++++++++++++++++++++++++",
"++++++ XooooO   OOO  . ++++++++++++++ oooooOOOOO. +++++++++++++++++ OOOOOOOOOOO ++++++++++++++++++++++++++++++++++++++++++++++++++++++++++++++++++++++++++++++++++++++++++++++++++++++++++++++++++++++++++++++++++++++++++++++++++++++++++++++++++++++++++++++++",
"+++++++ ooooOOOOOOOO. ++++++++++++++++ ooooXXXX..  +++++++++++++++++ OOOOOOOOOOO ++++++++++++++++++++++++++++++++++++++++++++++++++++++++++++++++++++++++++++++++++++++++++++++++++++++++++++++++++++++++++++++++++++++++++++++++++++++++++OO+++++++++++++++++++",
"+++++++ XooooXOOOOOO. +++++++++++++++++  ooooXOOO..  +++++++++++++++ OOOOOOOOOOO +++++++++++++++++++++++++++++++++++++++++++++++++++++++++++++++++++++++++++++++++++++++++++++++++++++++++++++++++++++++++OO+++++++++++++++++++++++++++++++OO+++++++++++++++++++",
"++++++++ oooooXXX... +++++++++++++++++ ooooooOOOOO...  +++++++++++++ OOOOOOOOOOOO +++++++++++++++++++++++++++++++++++++++++++++++++++++++++++++++++++++++++++++++++++++++++++++++++++++++++++++++++++++++OO+O+++++++++++++++++++++++++++++++++++++++++++++++++++",
"+++++++  ooooooOOO. +++++++++++++++++ oooooooOOOOOO.... ++++++++++++ OOOOOOOOOOOO ++++++++++++++++++++++++++++++++++++++++++++++++++++++++++++++++++++++++++++++++++++++++OOOO+++++++++++++++++++++++++++OO+++++++++++++++++++++++++++++++++++++++++++++++++++++",
"++++++ oooooooOOOO.. +++++++++++++++ oooooo.XOOOOOO.... ++++++++++++ OOOOOOOOOOOO +++++++++++++++++++++++++++++++++++++++++++++++++++++++OOOO++++++++++++++++++++++++++++OOOOOO++++++++++++++++++++++++++OO++++++++++++++++++++++O+++++++++++++++++++++++++++O++",
"+++++ ooooooooOOOOO.. +++++++++++++ oooooo.XoOOOOOOO .. +++++++++++++ OOOOOOOOOOO  ++++++++++++++++++++++++OOO++++++++++++++++++++++++++OOOOOOO++++++++++++++++++++++++++OOO+OOO++++++++++++++++OO++++++++OO++++++++++++++++++++OO+++++++++++++++++++++++++++OO+",
"++++ oooooo.XOOOOOO... ++++++++++++ ooooo  oooOOOOOO.  ++++++++++++++ OOOOOOOOOOOOO  +++++++++++++++++++OOOOOOOO++++++++++++++++++++++++OOOOOOOO++++++++++++++++OO+++++++OO+++O+++++++++++++OOO+OO++++++++++++++++++++++++++OO++++++++++++++++++++++++++++++++++",
"+++ oooooo.XoOOOOOO.... +++++++++++ oooo + ooooOOOOO.. +++++++++++++++ OOOOOOOOOOOOOO +++++++++++++++++OOOOOOOOOO+++++++++++++++++++++++OO++OOOO++++++++++OOO+++OOO++++++OO+++O++++++++++++OOOOO+O++++++++++++++++++++++++++OO++++++++++++++++++++++++++++++++++",
"+++ ooooo.XooOOOOOO.... ++++++++++++    ++ oooooOOO.... +++++++++++++++  OOOOOOOOOOOOO   ++++++++++++++O++OOOOOOO+++++++++++++++++++++++OO+++OO+++++++++++OOOOO+OOO+++++++OO++++++++++++++OO++OOO++++++++++++++++++++++++++++OO+++++++++++++++++++++++++++++++++",
"+++ oooo.XoooOOOOOO ... +++++++++++++++++++ oooooXX..... ++++++++++++++ OOOOOOOOOOOOOOOOO  +++++++++++++++OOOOOOOO+++++++++OOO+++OO+++++O+++OO+++++++++++O++OOO+O+O+++++++++++++++++++++++OO+++O++++++++++++++++++++++++++++++++++++++++++++++++++++++++++++++++",
"++++     oooooOOOO.    ++++++++++++++++++++ oooooX  .... +++++++++++++ OOOOOOOOOOOOOOOOOOOO +++++++++++++OOOOOOOOOO+++++++++OO++OOOO+++++++OOOO++++++++++++++OOOO++++++++++OO++++++++++++++OO++O+++++++++OO+++++++++++++++++++++++++++++++++++++++++++++++++++++",
"++++++++ ooooooo... ++++++++++++++++++++++++ oooo ++ ... +++++++++++++ OOOOO OOOOOOOOOOOOOO +++++++OO+++OOOOOOOOOOOOO+++++++OOO+OO+++++++++OOOO++++++++++++++OOOO+++++++++OOOO+++++++++++++++++O+++++++++OO++++++++++++O++++++++++++++++++++++++++++++++++++++++",
"++++++++ oooooXXX.. +++++++++++++++++++++++++ ooo +++   ++++++++++++++ OOOO +  OOOOOO   OOO ++++++OO++OOOOOOOOOOOOOOOOOO++OOOOO+OOO+++++++++OOOOOOO++++++++++OOO++++++++++OOOO++++++OO++++++++++++++++++++++++++++++++OO++++++++++++++++++++++++++++++++++++++++",
"+++++++ ooooo   ... ++++++++++++++++++++++++++   ++++++++++++++++++++++    ++++  OOO +++   +++++++OOOOOOOOOOOOOOOOOOOOOOOOOOOOO++OOO+++++++OOOOOOOOOO+++++++OOOO+++++++++++OO+++OOO+OO++++++++++++++++++++++++++++++++++++++++++++++++++++++++++++++++++++++++++",
"+++++++ oooo ++ ... +++++++++++++++++++++++++++++++++++++++++++++++++++++++++++++   ++++++++++++++OOOOOOOOOOOOOOOOOOOOOOOOOOOOO+++OOOO+++OOOOOOOOOOOOOO+++OOOOO+++++++++++++OOOOOOOO++++++++++++++++++++++++++++++++++++++++++++++++++++++++++++++++++++++++++++",
"+++++++ ooo +++ ... +++++++++++++++++++++++++++++++++++++++++++++++++++++++++++++++++++++++++++++++OOOOOOOOOOOOOOOOOOOOOOOOOOO++++++++++OOOOOOOOOOOOOOOOO+++++++++++++++++OOOOOOOOOOOOOO+++++++++++++++++++++OOOOOOOO+++++++++++++++++++++++++++++++++++++++++++"
};
