/* XPM */
static char *result[] = {
/* columns rows colors chars-per-pixel */
"128 32 5 1 ",
"  c #04193F",
". c #780BF7",
"X c #D840FB",
"o c #F489F6",
"O c None",
/* pixels */
"OOOOOOOOOOOOOOOOOOOOOOOOOOOOOOOOOOOOOOOOOOOOOOOOOOOOOOOOOOOOOOOOOOOOOOOOOOOOOOOOOOOOOOOOOOOOOOOOOOOOOOOOOOOOOOOOOOOOOOOOOOOOOOOO",
"OOOOOOOOOOOOOOOOOOOOOOOOOOOOOOOOOOOOOOOOOOOOOOOOOOOOOOOOOOOOOOOOOOOOOOOOOOOOOOOOOOOOOOOOOOOOOOOOOOOOOOOOOOOOOOOOOOOOOOOOOOOOOOOO",
"OOOOOOOOOOOOOOOOOOOOOOOOOOOOOOOOOOOOOOOOOOOOOOOOOOOOOOOOOOOOOOOOOOOOOOOOOOOOOOOOOOOOOOOOOOOOOOOOOOOOOOOOOOOOOOOOOOOOOOOOOOOOOOOO",
"OOOOOOOOOO  OOOOOOO  OOOOOOOOOOOOOOOOOOOOOOOOOOOOOO   OOOOOOOOOOOOOOOOOOOO  OOOOOOO  OOOOOOOOOOOOOOOOOOOO   OOOOOOOOOOOOOOOOOOOO",
"OOOOOOOOO oo OOOOO .. OOOOOOOOOOOOOOOOOOOO   OOOOO ... OOOOOOOOOOOOOOOOOO oo OOOOO .. OOOOOOOOOOOOOOOOOO ooo OOOOO   OOOOOOOOOOO",
"OOOOOOOO oooo OOO .... OOOOOOOOOOOOOOOOOO ooo  OOO ... OOOOOOOOOOOOOOOOO oooo OOO .... OOOOOOOOOOOOOOOOO ooo OOO  ... OOOOOOOOOO",
"OOOOOOOO ooooo   ..... OOOOOOOOOOOOOOOOOO ooooo   .... OOOOOOOOOOOOOOOOO ooooo   ..... OOOOOOOOOOOOOOOOO oooo   ..... OOOOOOOOOO",
"OOOOOOOOO oooXXXXX... OOOOOOOOOOOOOOOOOOO oooXXXXXX... OOOOOOOOOOOOOOOOOO oooXXXXX... OOOOOOOOOOOOOOOOOO oooXXXXX.... OOOOOOOOOO",
"OOOOOOOOO XoooooXXXX. OOOOOOOOOOOOOOOOOOOO XoooooXXXX. OOOOOOOOOOOOOOOOOO XoooooXXXX. OOOOOOOOOOOOOOOOOO XoooooXXXX. OOOOOOOOOOO",
"OOOOOOOO XoooooooooXX. OOOOOOOOOOOOOOOOOO XoooooooooXX. OOOOOOOOOOOOOOOO XoooooooooXX. OOOOOOOOOOOOOOOO XoooooooooXX. OOOOOOOOOO",
"OOOOOOOO oooooooooooX. OOOOOOOOOOOOOOOOOO oooooooooooX. OOOOOOOOOOOOOOOO oooooooooooX. OOOOOOOOOOOOOOOO oooooooooooX. OOOOOOOOOO",
"OOOOOOO XoooooooooooXX. OOOOOOOOOOOOOOOO XoooooooooooXX. OOOOOOOOOOOOOO XoooooooooooXX. OOOOOOOOOOOOOO XoooooooooooXX. OOOOOOOOO",
"OOOOOOO ooooooooooooXX. OOOOOOOOOOOOOOOO ooooooooooooXX. OOOOOOOOOOOOOO ooooooooooooXX. OOOOOOOOOOOOOO ooooooooooooXX. OOOOOOOOO",
"OOOOOOO ooooooooooooXX. OOOOOOOOOOOOOOOO ooooooooooooXX. OOOOOOOOOOOOOO ooooooooooooXX. OOOOOOOOOOOOOO ooooooooooooXX. OOOOOOOOO",
"OOOOOOO ooooooooooooXX. OOOOOOOOOOOOOOOO ooooooooooooXX. OOOOOOOOOOOOOO ooooooooooooXX. OOOOOOOOOOOOOO ooooooooooooXX. OOOOOOOOO",
"OOOOOOO ooooooooooooXX. OOOOOOOOOOOOOOOO ooooooooooooXX. OOOOOOOOOOOOOO ooooooooooooXX. OOOOOOOOOOOOO  ooooooooooooXX. OOOOOOOOO",
"OOOOOOO XoooooooooooXX. OOOOOOOOOOOOOOOO XoooooooooooXX. OOOOOOOOOOOOOO XoooooooooooXX. OOOOOOOOOOOO X XoooooooooooXX. OOOOOOOOO",
"OOOOOOOO oooooooooooXX OOOOOOOOOOOOOOOOOO oooooooooooXX  OOOOOOOOOOOOO   oooooooooooXX OOOOOOOOOOOOO XX oooooooooooXX OOOOOOOOOO",
"OOOOOO   XoooooooooXX. OOOOOOOOOOOOOOOOOO XoooooooooXX.  OOOOOOOOOOOO XX XoooooooooXX.  OOOOOOOOOOOO XX XoooooooooXX. OOOOOOOOOO",
"OOOOO XXXXoooooooXX..  OOOOOOOOOOOOOOOOO XXoooooooXX.. . OOOOOOOOOOOO XXXXoooooooXX.. .. OOOOOOOOOOO XXXXoooooooXX..  OOOOOOOOOO",
"OOOOO XXXXooooooooX. .. OOOOOOOOOOOOOOO XXXooooooooX.... OOOOOOOOOOOO XXXXooooooooX..... OOOOOOOOOOOO XXXooooooooX.... OOOOOOOOO",
"OOOOO XXXXooooooooX.... OOOOOOOOOOOOOOO XXXooooooooX... OOOOOOOOOOOOOO    ooooooooX..... OOOOOOOOOOOOO   ooooooooX.... OOOOOOOOO",
"OOOOOO    ooooooooX.... OOOOOOOOOOOOOOO XX ooooooooX.  OOOOOOOOOOOOOOOOOO ooooooooX.    OOOOOOOOOOOOOOOO ooooooooX. .. OOOOOOOOO",
"OOOOOOOOO ooooooooX.   OOOOOOOOOOOOOOOOO   ooooooooX. OOOOOOOOOOOOOOOOOOO ooooooooX. OOOOOOOOOOOOOOOOOOO ooooooooX.   OOOOOOOOOO",
"OOOOOOOOO ooooooooX. OOOOOOOOOOOOOOOOOOOO XoooooooXX. OOOOOOOOOOOOOOOOOOO ooooooooX. OOOOOOOOOOOOOOOOOOO ooooooooXX. OOOOOOOOOOO",
"OOOOOOOOO ooooooooX. OOOOOOOOOOOOOOOOOOOO XoooooooX. OOOOOOOOOOOOOOOOOOOO ooooooooX. OOOOOOOOOOOOOOOOOOOO ooooooXXX. OOOOOOOOOOO",
"OOOOOOOOO ooooooooX. OOOOOOOOOOOOOOOOOOOO XXXXXoooX. OOOOOOOOOOOOOOOOOOOO ooooooooX. OOOOOOOOOOOOOOOOOOOO oooooX.... OOOOOOOOOOO",
"OOOOOOOOO oooooXXXX. OOOOOOOOOOOOOOOOOOOO XXX  XXXX. OOOOOOOOOOOOOOOOOOOO oooooXXXX. OOOOOOOOOOOOOOOOOOOO ooooX  ... OOOOOOOOOOO",
"OOOOOOOOO oooX  XXX. OOOOOOOOOOOOOOOOOOOO    OO XXX. OOOOOOOOOOOOOOOOOOOO oooX  XXX. OOOOOOOOOOOOOOOOOOOO oooX OO    OOOOOOOOOOO",
"OOOOOOOOO ooo OO XX. OOOOOOOOOOOOOOOOOOOOOOOOOOO XX. OOOOOOOOOOOOOOOOOOOO ooo OO XX. OOOOOOOOOOOOOOOOOOOO ooo OOOOOOOOOOOOOOOOOO",
"OOOOOOOOO ooo OO XX. OOOOOOOOOOOOOOOOOOOOOOOOOOO XX. OOOOOOOOOOOOOOOOOOOO ooo OO XX. OOOOOOOOOOOOOOOOOOOO ooo OOOOOOOOOOOOOOOOOO",
"OOOOOOOOO    OOOO    OOOOOOOOOOOOOOOOOOOOOOOOOOOO    OOOOOOOOOOOOOOOOOOOO    OOOO    OOOOOOOOOOOOOOOOOOOO    OOOOOOOOOOOOOOOOOOO"
};
