/* XPM */
static char *result[] = {
/* columns rows colors chars-per-pixel */
"192 32 6 1 ",
"  c #04193F",
". c #780BF7",
"X c #D840FB",
"o c #F489F6",
"O c #FCFEFE",
"+ c None",
/* pixels */
"++++++++++++++++++++++++++++++++++++++++++++++++++++++++++++++++++++++++++++++++++++++++++++++++++++++++++++++++++++++++++++++++++++++++++++++++++++++++++++++++++++++++++++++++++++++++++++++++",
"++++++++++++++++++++++++++++++++++++++++++++++++++++++++++++++++++++++++++++++++++++++++++++++++++++++++++++++++++++++++++++++++++++++++++++++++++++++++++++++++++++++++++++++++++++++++++++++++",
"++++++++++++++++++++++++++++++++++++++++++++++++++++++++++++++++++++++++++++++++++++++++++++++++++++++++++++++++++++++++++++++++++++++++++++++++++++++++++++++++++++++++++++++++++++++++++++++++",
"++++++++++++++++++++++++++++++++++++++++++++++++++++++++++++++++++++++++++++++++++++++++++++++++++++++++++++++++++++++++++++++++++++++++++++++++++++++++++++++++++++++++++++++++++++++++++++++++",
"++++++++++  +++++  +++++++++++++++++++++++++++++++++++++++++++++++++++++++++++++++++++++++++++++++++++++++++++++++++++++++++++++++++++++++++++++++++++++++++++++++++++++++++++++++++++++++++++++",
"+++++++++ oo +++ .. +++++++++++++++++++++++++++++++++++++++++++++++++++++      +   ++++++++++++++++++++++++++++++++++++++++++++++++++++++      +   +++++++++++++++++++++++++++++++++++++++++++++",
"++++++++ oooo + ... +++++++++++++++++++++   ++++   +++++++++++++++++++++ oooooo ...  +++++++++++++++++++++   ++++   ++++++++++++++++++++ oooooo ...  ++++++++++++++++++++   ++++   +++++++++++++",
"++++++++ ooooo  .... +++++++++++++++++++ ooo ++ ... ++++++++++++++++++++ oooooXXXX... +++++++++++++++++++ ooo ++ ... +++++++++++++++++++ oooooXXXX... ++++++++++++++++++ ooo ++ ... ++++++++++++",
"+++++++++ oooXXXX... +++++++++++++++++++ ooo ++ ... +++++++++++++++++++++  XXooooXXX.. ++++++++++++++++++ ooo ++ ... ++++++++++++++++++++  XXooooXXX.. +++++++++++++++++ ooo ++ ... ++++++++++++",
"+++++++++ XoooooXXX.. ++++++++++++++++++ oooo   ... +++++++++++++++++++++ XoooooooXXX. ++++++++++++++++++ oooo   ... ++++++++++++++++++++ XoooooooXXX. +++++++++++++++++ oooo   ... ++++++++++++",
"++++++++ XoooooooXXX. ++++++++++++++++++ oooXXXX.... ++++++++++++++++++++ oooooOOOOOO.. +++++++++++++++++ oooXXXX.... +++++++++++++++++++ oooooOOOOOO.. ++++++++++++++++ oooXXXX.... +++++++++++",
"++++++++ oooooOOOOOO.. +++++++++++++++++ XoooooXXX.. +++++++++++++++++++ XooooOOOOOOOO. +++++++++++++++++ XoooooXXX.. ++++++++++++++++++ XooooOOOOOOOO. ++++++++++++++++ XoooooXXX.. +++++++++++",
"+++++++ XooooOOOOOOOO. ++++++++++++++++ XoooooooXXX. +++++++++++++++++++ ooooOO   OOO  . +++++++++++++++ XoooooooXXX. ++++++++++++++++++ ooooOO   OOO  . ++++++++++++++ XoooooooXXX. +++++++++++",
"+++++++ ooooOO   OOO  . +++++++++++++++ oooooOOOOOO.. ++++++++++++++++++ ooooO  OO O  O  +++++++++++++++ oooooOOOOOO.. +++++++++++++++++ ooooO  OO O  O  ++++++++++++++ oooooOOOOOO.. ++++++++++",
"+++++++ ooooO  OO O  O  ++++++++++++++ XooooOOOOOOOO. ++++++++++++++++++ ooooO  OO O  O  ++++++++++++++ XooooOOOOOOOO. +++++++++++++++++ ooooO  OO O  O  +++++++++++++ XooooOOOOOOOO. ++++++++++",
"+++++++ ooooO  OO O  O  ++++++++++++++ ooooOO   OOO  . +++++++++++++++++ ooooO  OO O  O  ++++++++++++++ ooooOO   OOO  . ++++++++++++++++ ooooO  OO O  O  +++++++++++++ ooooOO   OOO  . +++++++++",
"+++++++ ooooO     O     ++++++++++++++ ooooO  OO O  O  +++++++++++++++++ XooooO   OOO  . ++++++++++++++ ooooO  OO O  O  ++++++++++++++++ XooooO   OOO  . +++++++++++++ ooooO  OO O  O  +++++++++",
"+++++++ XooooO   OOO  . ++++++++++++++ ooooO     O     ++++++++++++++++++ ooooOOOOOOOOO +++++++++++++++ ooooO     O     +++++++++++++++++ ooooOOOOOOOOO     ++++++++++ ooooO     O     +++++++++",
"++++++++ ooooOOOOOOOOO +++++++++++++++ ooooO     O     ++++++++++++++++++ XooooXOOOOOO. +      ++++++++ ooooO     O     +++++++++++++++++ XooooXOOOOOooooooo +++++++++ ooooO     O     +++++++++",
"++++++++ XooooXOOOOOO. +++++++++++++++ XooooO   OOO  . ++++++++++++++++++ ooooooXXX...   ...... +++++++ XooooO   OOO  . ++++++++++++++++++ oooooooooooooooooo ++++++++ XooooO   OOO  . +++++++++",
"+++++++++ oooooXXX... +++++++++++++++++ ooooOOOOOOOOO ++++++++++++++++++ ooooooooOOO........... ++++++++ ooooOOOOOOOOO +++++++++++++++++++ oooooooooooooooooo +++++++++ ooooOOOOOOOOO ++++++++++",
"+++++++++ ooooooOOO. ++++++++++++++++++ XooooXOOOOOO. +++++++++++++++++ ooooo.ooOOOO........... ++++++++ XooooXOOOOOO. +++++++++++++++++++ Xooooooooooooooooo +++++++++ XooooXOOOOOO. ++++++++++",
"++++++++ oooo.oOOOO.. ++++++++++++++++++ oooooXXX... ++++++++++++++++++ oooo.XooOOOOO......... ++++++++++ oooooXXX... +++++++++++++++++++++ ooooooooooooooooo ++++++++++ oooooXXX... +++++++++++",
"++++++++ oooo.oOOOOO. ++++++++++++++++++ oooooOOOO.. +++++++++++++++++ oooo.XXoOOOOOO......... ++++++++++ oooooOOOO.. +++++++++++++++++++++ .ooooooooooooooo +++++++++++ oooooOOOO.. +++++++++++",
"+++++++ oooo.XOOOOOO.. ++++++++++++++++ oooo.oOOOOO. +++++++++++++++++ oooo.XooOOOOOO.    ... ++++++++++ oooo.oOOOOO.. ++++++++++++++++++++ X..OOOoooooooo  ++++++++++++ oooooOOOOO. +++++++++++",
"+++++++ oooo.XOOOOOO.. ++++++++++++++++ oooo.OOOOOO. +++++++++++++++++ ooo.XXooOOOOOO ++++   +++++++++++ oooo.OOOOOO... +++++++++++++++++++ XXXOOOOOO .   +++++++++++++++ oooooOOOO. +++++++++++",
"+++++++ ooo.XoOOOOOO.. ++++++++++++++++ oooo.OOOOOO. ++++++++++++++++++   .XoooOOOOOO ++++++++++++++++++ oooo.OOOOOO ... ++++++++++++++++++ oooOOOOOO . +++++++++++++++++ ooooooOOO. +++++++++++",
"++++++++ ..XXooOOOO.  +++++++++++++++++ oooo.OOOOOO ++++++++++++++++++++++ oooooOOOO. ++++++++++++++++++ oooo.OOOOOO ... +++++++++++++++++ oooooOOOO.  ++++++++++++++++++ .oooooOOO ++++++++++++",
"+++++++++ XXoooXXX.. ++++++++++++++++++ ooo.XoOOOO. +++++++++++++++++++++ ooooooXXX.. ++++++++++++++++++ ooo.XoOOOO.    +++++++++++++++++ ooooooXXX.. ++++++++++++++++++ XX.ooo.OO. ++++++++++++",
"+++++++++ oooo  .... +++++++++++++++++++ ..XooXXX.. +++++++++++++++++++++ oooo   ... ++++++++++++++++++++ ..XooXXX.. ++++++++++++++++++++ oooo   ... +++++++++++++++++++ ooX...XX.. ++++++++++++",
"+++++++++ oooo  ... ++++++++++++++++++++ oooo  .... ++++++++++++++++++++ oooo + .... ++++++++++++++++++++ oooo  .... +++++++++++++++++++ oooo + .... +++++++++++++++++++ oooX  .... ++++++++++++",
"+++++++++ ooo + ... ++++++++++++++++++++ ooo ++ ... ++++++++++++++++++++ ooo ++ ... +++++++++++++++++++++ ooo ++ ... +++++++++++++++++++ ooo ++ ... ++++++++++++++++++++ ooo ++ ... ++++++++++++"
};
