/* XPM */
static char *result[] = {
/* columns rows colors chars-per-pixel */
"256 32 6 1 ",
"  c #04193F",
". c #780BF7",
"X c #D840FB",
"o c #F489F6",
"O c #FCFEFE",
"+ c None",
/* pixels */
"++++++++++++++++++++++++++++++++++++++++++++++++++++++++++++++++++++++++++++++++++++++++++++++++++++++++++++++++++++++++++++++++++++++++  ++++++++++++++++++++++++++++++++++++++++++++++++++++++++++++++++++++++++++++++++++++++++++++++++++++++++++++++++++++++",
"+++++++++++++++++++++++++++++++++++++++++++++++++++++++++++++++++++++++++++++++++++++++++++++++++++++++++++++++++++++++++++++++++++++++ oo   ++   ++++++++++++++++++++++++++++++++++++++++++++++++++++++++++++++++++++++++++++++++++++++++++++++++++++++++++++++",
"++++++++++++++++++++++++++++++++++++++++++++++++++++++++++++++++++++++++++++++++++++++++++++++++++++++++    +++   +++++++++++++++++++++ ooooo  ... +++++++++++++++++++++    ++++  ++++++++++++++++++++++++++++++++++++++++++++++++++++++++++++++++++++++++++++++",
"+++++++++++++++++++++++++++++++++++++++++++++++++++++++++++++++++++++++++++++++++++++++++++++++++++++++ oooo   ...  +++++++++++++++++++ oooooo .... +++++++++++++++++++ oooo ++ .. +++++++++++++++++++++++++++++++++++++++++++++++++++++++++++++++++++++++++++++",
"++++++++++  +++++  ++++++++++++++++++++++++++++++++++++++++++++++++++++++++++++++++++++++++++++++++++++ oooooXXXX... +++++++++++++++++++ ooooXXXX... ++++++++++++++++++ ooooo  .... ++++++++++++++++++++++++++++++++++++++++++++++++++++++++++++++++++++++++++++",
"+++++++++ oo +++ .. +++++++++++++++++++++++++++++++++++++++++++++++++++++++++++++++++++++++++++++++++++ ooooooooXXX.. +++++++++++++++++++ XoooooXXX.. ++++++++++++++++++ ooooo ..... +++++++++++++++++++++   ++++   ++++++++++++++++++++++++++++++++++++++++++++",
"++++++++ oooo + ... ++++++++++++++++++++++   ++++   +++++++++++++++++++++   ++++   +++++++++++++++++++++ XXooooooXXX. ++++++++++++++++++ XoooooooXXX. +++++++++++++++++++ oooXXXX... ++++++++++++++++++++ ooo ++ ... +++++++++++++++++++      +    +++++++++++++",
"++++++++ ooooo  .... ++++++++++++++++++++ ooo ++ ... +++++++++++++++++++ ooo ++ ... ++++++++++++++++++++ oooooOOOOOO.. +++++++++++++++++ oooooOOOOOO.. ++++++++++++++++++ XoooooXXX.. +++++++++++++++++++ ooo ++ ... +++++++++++++++++++ ooooo .... ++++++++++++",
"+++++++++ oooXXXX... ++++++++++++++++++++ ooo ++ ... +++++++++++++++++++ oooo + ... +++++++++++++++++++ XooooOOOOOOOO. ++++++++++++++++ XooooOOOOOOOO. +++++++++++++++++ XoooooooXXX. +++++++++++++++++++ ooo ++ ... +++++++++++++++++++ ooooXXXX... +++++++++++",
"+++++++++ XoooooXXX.. +++++++++++++++++++ oooo   ... +++++++++++++++++++ ooooo   ... ++++++++++++++++++ ooooOO   OOO  . +++++++++++++++ ooooOO   OOO  . ++++++++++++++++ oooooOOOOOO.. ++++++++++++++++++ oooo   ... ++++++++++++++++++++ XoooooXXX.. ++++++++++",
"++++++++ XoooooooXXX. +++++++++++++++++++ oooXXXX.... +++++++++++++++++++ oooXXXX... ++++++++++++++++++ ooooO  OO O  O  +++++++++++++++ ooooO  OO O  O  +++++++++++++++ XooooOOOOOOOO. ++++++++++++++++++ oooXXXX.... ++++++++++++++++++ XoooooooXXX. ++++++++++",
"++++++++ oooooOOOOOO.. ++++++++++++++++++ XoooooXXX.. +++++++++++++++++++ XoooooXXX.. +++++++++++++++++ ooooO  OO O  O  +++++++++++++++ ooooO  OO O  O  +++++++++++++++ ooooOO   OOO  . +++++++++++++++++ XoooooXXX.. ++++++++++++++++++ oooooOOOOOO.. +++++++++",
"+++++++ XooooOOOOOOOO. +++++++++++++++++ XoooooooXXX. ++++++++++++++++++ XoooooooXXX. +++++++++++++++++ ooooO  OO O  O  +++++++++++++++ ooooO     O     +++++++++++++++ ooooO  OO O  O  ++++++++++++++++ XoooooooXXX. +++++++++++++++++ XooooOOOOOOOO. +++++++++",
"+++++++ ooooOO   OOO  . ++++++++++++++++ oooooOOOOOO.. +++++++++++++++++ oooooOOOOOO.. ++++++++++++++++ XooooO   OOO  . +++++++++++++++ XooooO   OOO  . +++++++++++++++ ooooO  OO O  O  ++++++++++++++++ oooooOOOOOO.. ++++++++++++++++ ooooOO   OOO  . ++++++++",
"+++++++ ooooO  OO O  O  +++++++++++++++ XooooOOOOOOOO. ++++++++++++++++ XooooOOOOOOOO. +++++++++++++++++ ooooOOOOOOOOO +++++++++++++++++ ooooOOOOOOOOO ++++++++++++++++ ooooO     O     +++++++++++++++ XooooOOOOOOOO. ++++++++++++++++ ooooO  OO O  O  ++++++++",
"+++++++ ooooO  OO O  O  +++++++++++++++ ooooOO   OOO  . +++++++++++++++ ooooOO   OOO  . ++++++++++++++++ XooooXOOOOOO. +++++++++++++++++ XooooXOOOOOO. ++++++++++++++++ XooooO   OOO  . +++++++++++++++ ooooOO   OOO  . +++++++++++++++ ooooO  OO O  O  ++++++++",
"+++++++ ooooO     O     +++++++++++++++ ooooO  OO O  O  +++++++++++++++ ooooO  OO O  O  +++++++++++++++++ oooooXXX... +++++++++++++++++++ oooooXXX... ++++++++++++++++++ ooooOOOOOOOOO ++++++++++++++++ ooooO  OO O  O  +++++++++++++++ ooooO     O     ++++++++",
"+++++++ XooooO   OOO  . +++++++++++++++ ooooO     O     +++++++++++++++ ooooO     O     +++++++++++++++++ ooooooOOO. ++++++++++++++++++++ ooooooOOO. +++++++++++++++++++ XooooXOOOOOO. ++++++++++++++++ ooooO     O     +++++++++++++++ XooooO   OOO  . ++++++++",
"++++++++ ooooOOOOOOOOO ++++++++++++++++ ooooO     O     +++++++++++++++ ooooO     O     +++++++++++++++++ oooooOOOO. +++++++++++++++++++ ooooooOOOO. ++++++++++++++++++++ oooooXXX... +++++++++++++++++ ooooO     O     ++++++++++++++++ ooooOOOOOOOOO +++++++++",
"++++++++ XooooXOOOOOO. ++++++++++++++++ XooooO   OOO  . +++++++++++++++ XooooO   OOO  . ++++++++++++++++ oooo.oOOOOO. +++++++++++++++++ ooooo.oOOOOO. +++++++++++++++++++ ooooooOOO. ++++++++++++++++++ XooooO   OOO  . ++++++++++++++++ XooooXOOOOOO. +++++++++",
"+++++++++ oooooXXX... ++++++++++++++++++ ooooOOOOOOOOO +++++++++++++++++ ooooOOOOOOOOO +++++++++++++++++ oooo.OOOOOO. ++++++++++++++++ ooooo.XOOOOOO.. +++++++++++++++   ooooooOOOO..   ++++++++++++++++ ooooOOOOOOOOO ++++++++++++++++++ oooooXXX... ++++++++++",
"+++++++++ ooooooOOO. +++++++++++++++++++ XooooXOOOOOO. +++++++++++++++++ XooooXOOOOOO. +++++++++++++++++ ooo.XOOOOOO.. +++++++++++++++ oooo.XoOOOOOO... +++++++++++++ ooooooo.oOOOOO.... +++++++++++++++ XooooXOOOOOO. +++++++++++++++++ oooooooOOO. +++++++++++",
"++++++++ oooo.oOOOO.. +++++++++++++++++++ oooooXXX... +++++++++++++++     oooooXXX...    ++++++++++++++ oooo.XOOOOOO.. +++++++++++++++ ooo.XooOOOOOO... +++++++++++++ oooooo.XOOOOOO.... ++++++++++++    .oooooXXX...    ++++++++++++++ oooooooOOOO.. ++++++++++",
"++++++++ oooo.oOOOOO. ++++++++++++++++++ ooooooOOOOO. ++++++++++++++ ooooooooooOOOOO..... +++++++++++++ ooo.XoOOOOOO.. ++++++++++++++++  .XXoooOOOO.   ++++++++++++++ ooooo.XoOOOOOO.... +++++++++++ ooooooooooOOOOO..... ++++++++++++ oooooo.oOOOOO.. +++++++++",
"+++++++ oooo.XOOOOOO.. +++++++++++++++  ooooooOOOOOOO.  ++++++++++++ oooooooooOOOOOOO.... +++++++++++++ ooo.XoOOOOOO.. ++++++++++++++++++ oooooXXX.. +++++++++++++++++   ..XooOOOOOO    ++++++++++++ oooooooooOOOOOOO.... ++++++++++++ ooooo.XOOOOOO... ++++++++",
"+++++++ oooo.XOOOOOO.. ++++++++++++++ oooooo.OOOOOOOO... +++++++++++ ooooooooOOOOOOOO.... ++++++++++++++ ..XoooOOOO.  +++++++++++++++++++ oooo  .... ++++++++++++++++++++ XXoooOOOO. +++++++++++++++ ooooooooOOOOOOOO.... ++++++++++++ oooo.XoOOOOOO... ++++++++",
"+++++++ ooo.XoOOOOOO.. ++++++++++++++ ooooo.XOOOOOOOO... ++++++++++++    ..ooOOOOOOOO    ++++++++++++++++ XXoooXXX.. ++++++++++++++++++++ oooo  ... +++++++++++++++++++++ oooooXXX.. ++++++++++++++++    ..ooOOOOOOOO    +++++++++++++ ooo.XXoOOOOOO... ++++++++",
"++++++++ ..XXooOOOO.  +++++++++++++++ oooo.XoOOOOOOO ... ++++++++++++++++ XooOOOOOOO ++++++++++++++++++++ oooo  .... ++++++++++++++++++++ ooo + ... +++++++++++++++++++++ oooo  .... ++++++++++++++++++++ XooOOOOOOO ++++++++++++++++++  .XXoooOOOO.   +++++++++",
"+++++++++ XXoooXXX.. +++++++++++++++++   .XXooOOOOOO    +++++++++++++++++ ooooOOOOOO ++++++++++++++++++++ oooo  .... +++++++++++++++++++++    ++    +++++++++++++++++++++ oooo  ... +++++++++++++++++++++ ooooOOOOOO ++++++++++++++++++++ XooooXXX.. +++++++++++",
"+++++++++ oooo  .... ++++++++++++++++++++ XooooXXX.. ++++++++++++++++++++ oooooXXX.. ++++++++++++++++++++ ooo + ... +++++++++++++++++++++++++++++++++++++++++++++++++++++ ooo + ... +++++++++++++++++++++ oooooXXX.. ++++++++++++++++++++ oooo  .... +++++++++++",
"+++++++++ oooo  ... ++++++++++++++++++++ ooooo  .... +++++++++++++++++++ ooooo  .... ++++++++++++++++++++ ooo + ... ++++++++++++++++++++++++++++++++++++++++++++++++++++++    ++    +++++++++++++++++++++ oooo  .... ++++++++++++++++++++ oooo  ... ++++++++++++",
"+++++++++ ooo + ... ++++++++++++++++++++ oooo + ... ++++++++++++++++++++ oooo + ... ++++++++++++++++++++++    ++    +++++++++++++++++++++++++++++++++++++++++++++++++++++++++++++++++++++++++++++++++++++ ooo + ... +++++++++++++++++++++ ooo + ... ++++++++++++"
};
