/* XPM */
static char *ddd5782bfc124714b75b0253f21647c762hpX9jT72uoMVmS[] = {
/* columns rows colors chars-per-pixel */
"128 32 10 1 ",
"  c #1C1A30",
". c #DDE2E9",
"X c #94A0BA",
"o c #2A304E",
"O c #D840FB",
"+ c #780BF7",
"@ c #FCFEFE",
"# c #04193F",
"$ c #F489F6",
"% c None",
/* pixels */
"%%%%%%%%%%%%%%%%%%%%%%%%%%%%%%%%%%%%%%%%%%%%%%%%%%%%%%%%%%%%%%%%%%%%%%%%%%%%%%%%%%%%%%%%%%%%%%%%%%%%%%%%%%%%%%%%%%%%%%%%%%%%%%%%",
"%%%%%%%%%%%%%%%%%%%%%%%%%%%%%%%%%%%%%%%%%%%%%%%%%%%%%%%%%%%%%%%%%%%%%%%%%%%%%%%%%%%%%%%%%%%%%%%%%%%%%%%%%%%%%%%%%%%%%%%%%%%%%%%%",
"%%%%%%%%%%%%%%%%%%%%%%%%%%%%%%%%%%%%%%%%%%%%%%%%%%%%%%%%%%%%%%%%%%%%%%%%%%%%%%%%%%%%%%%%%%%%%%%%%%%%%%%%%%%%%%%%%%%%%%%%%%%%%%%%",
"%%%%%%%%%%%%%%%%%%%%%%%%%%%%%%%%%%%%%%%%%%%%%%%%%%%%%%%%%%%%%%%%%%%%%%%%%%%%%%%%%%%%%%%%%%%%%%%%%%%%%%%%%%%%%%%%%%%%%%%%%%%%%%%%",
"%%%%%%%%%%##%%%%%##%%%%%%%%%%%%%%%%%%%%%%%%%%%%%%%%%%%%%%%%%%%%%%%%%%%%%%%%%%%%%%%%%%%%%%%%%%%%%%%%%%%%%%####%%%###%%%%%%%%%%%%%",
"%%%%%%%%%#$$#%%%#++#%%%%%%%%%%%%%%%%%%%%%###%%%%###%%%%%%%%%%%%%%%%%%%%%%######%###%%%%%%%%%%%%%%%%%%%%%#$$$$#%#+++#%%%%%%%%%%%%",
"%%%%%%%%#$$$$#%#+++#%%%%%%%%%%%%%%%%%%%%#$$$#%%#+++#%%%%%%%%%%%%%%%%%%%%#$$$$$$#+++##%%%%%%%%%%%%%%%%%%%#$$$$$#+++++#%%%%%%%%%%%",
"%%%%%%%%#$$$$$##++++#%%%%%%%%%%%%%%%%%%%#$$$#%%#+++#%%%%%%%%%%%%%%%%%%%%#$$$$$OOOO+++#%%%%%%%%%%%%%%%%%%#$$$$OOOO+++#%%%%%%%%%%%",
"%%%%%%%%%#$$$OOOO+++#%%%%%%%%%%%%%%%%%%%#$$$$###+++#%%%%%%%%%%%%%%%%%%%%%##OO$$$$OOO++#%%%%%%%%%%%%%%%%%%#O$$$$$OOO++#%%%%%%%%%%",
"%%%%%%%%%#O$$$$$OOO++#%%%%%%%%%%%%%%%%%%#$$$OOOO++++#%%%%%%%%%%%%%%%%%%%%#O$$$$$$$OOO+#%%%%%%%%%%%%%%%%%#O$$$$$$$OOO+#%%%%%%%%%%",
"%%%%%%%%#O$$$$$$$OOO+#%%%%%%%%%%%%%%%%%%#O$$$$$OOO++#%%%%%%%%%%%%%%%%%%%%#$$$$$@@@@@@++#%%%%%%%%%%%%%%%%#$$$$$@@@@@@++#%%%%%%%%%",
"%%%%%%%%#$$$$$@@@@@@++#%%%%%%%%%%%%%%%%#O$$$$$$$OOO+#%%%%%%%%%%%%%%%%%%%#O$$$$@@@@@@@@+#%%%%%%%%%%%%%%%#O$$$$@@@@@@@@+#%%%%%%%%%",
"%%%%%%%#O$$$$@@@@@@@@+#%%%%%%%%%%%%%%%%#$$$$$@@@@@@++#%%%%%%%%%%%%%%%%%%#$$$$@@###    #+#%%%%%%%%%%%%%%#$$$$@@###@@@##+#%%%%%%%%",
"%%%%%%%#$$$$@@###@@@##+#%%%%%%%%%%%%%%#O$$$$@@@@@@@@+#%%%%%%%%%%%%%%%%%%#$$$$@##  ....  #%%%%%%%%%%%%%%#$$$$@##@@#@##@##%%%%%%%%",
"%%%%%%%#$$$$@##@@#@##@##%%%%%%%%%%%%%%#$$$$@@###@@@##+#%%%%%%%%%%%%%%%%%#$$$$@O$$$$$.... %%%%%%%%%%%%%%#$$$$@##@@#@##@##%%%%%%%%",
"%%%%%%%#$$$$@##@@#@##@##%%%%%%%%%%%%%%#    @##@@#@##@##%%%%%%%%%%%%%%%%%#$$$$O$$$$$$$$.XX %%%%%%%%%%%%%#$$$$@##@@#@##@##%%%%%%%%",
"%%%%%%%#$$$$@#####@#####%%%%%%%%%%%%%%#.... #####@#####%%%%%%%%%%%%%%%%%#O$$O$$$$$$$$$$Xo %%%%%%%%%%%%%#O$$$$@###@@@##+#%%%%%%%%",
"%%%%%%%#O$$$$@###@@@##+#%%%%%%%%%%%%%#$$X.XX ####@#####%%%%%%%%%%%%%%%%%%#$O$$$$$$$$$$$Xo %%%%%%%%%%%%%%#$$$$@@@@@@@@@#%%%%%%%%%",
"%%%%%%%%#$$$$@@@@@@@@@#%%%%%%%%%%%%%%#$$$XXo ###@@@##+#%%%%%%%%%%%%%%%%%%#O$$$$$$$$$$$$oo %%%%%%%%%%%%%%#O$$$$O@@@@@@+#%%%%%%%%%",
"%%%%%%%%#O$$OOO@@@@@@+#%%%%%%%%%%%%%%#$$$XXo @@@@@@@@#%%%%%%%%%%%%%%%%%%%%#$$$$$$$$$$$$o %%%%%%%%%%%%%%%%#$$$$$OOO+++#%%%%%%%%%%",
"%%%%%%%%%#OO$$$$OO+++#%%%%%%%%%%%%%%%#$$$$oo O@@@@@@+#%%%%%%%%%%%%%%%%%%%%#$$$$$$$$$$$  %%%%%%%%%%%%%%%%%#$$$$$$@@@++#%%%%%%%%%%",
"%%%%%%%%#O$$$$$$$@@+#%%%%%%%%%%%%%%%%%#$$$$ $$OOO+++#%%%%%%%%%%%%%%%%%%%%%#$$$$$$$$$+#%%%%%%%%%%%%%%%%%%%#$$$$$@@@@++#%%%%%%%%%%",
"%%%%%%%%#$$$$$$$$@@++#%%%%%%%%%%%%%%%%#$$$$$$$@@@@+++#%%%%%%%%%%%%%%%%%%%%#$$$$$$$@@@#%%%%%%%%%%%%%%%%%%%#$$$$$$@@@@++#%%%%%%%%%",
"%%%%%%%%#$$$$$$$$@@@+#%%%%%%%%%%%%%%%%%#$$$$$$@@@@@+++#%%%%%%%%%%%%%%%%%%%#++OO@@@@@@#%%%%%%%%%%%%%%%%%%%#$$$$$$@@@@++#%%%%%%%%%",
"%%%%%%%%#$$$$$$$$@@@++#%%%%%%%%%%%%%%%%%#$$$$@@@@@@++++#%%%%%%%%%%%%%%%%%%#OO$$@@@@@@#%%%%%%%%%%%%%%%%%%%#+$$$$$$@@@++#%%%%%%%%%",
"%%%%%%%%%#$$$$$$$@@@++#%%%%%%%%%%%%%%%%%#$$$$@@@@@@+++++#%%%%%%%%%%%%%%%%%#$$$$@@@@@@#%%%%%%%%%%%%%%%%%%%#+$$$$$$@@@++#%%%%%%%%%",
"%%%%%%%%%#++$$$$@@@@++#%%%%%%%%%%%%%%%%%#$$$$@@@@@@#++++#%%%%%%%%%%%%%%%%%#$$$$@@@@@@#%%%%%%%%%%%%%%%%%%%#+$$$$$$@@@#+#%%%%%%%%%",
"%%%%%%%%%#OO+++@@@@+##%%%%%%%%%%%%%%%%%%#$$$$$@@@@+##+++#%%%%%%%%%%%%%%%%%#$$$$$@@@@+#%%%%%%%%%%%%%%%%%%%#O+$$$$@@@+##%%%%%%%%%%",
"%%%%%%%%%#$$OO$OOO++#%%%%%%%%%%%%%%%%%%%#$$$$$OOO++#%###%%%%%%%%%%%%%%%%%#$$$$$$OOO++#%%%%%%%%%%%%%%%%%%%#$O++++OO++#%%%%%%%%%%%",
"%%%%%%%%%#$$$$##++++#%%%%%%%%%%%%%%%%%%%#$$$$##++++#%%%%%%%%%%%%%%%%%%%%%#$$$$###+++#%%%%%%%%%%%%%%%%%%%%#$$OO##++++#%%%%%%%%%%%",
"%%%%%%%%%#$$$$##+++#%%%%%%%%%%%%%%%%%%%%#$$$#%%#+++#%%%%%%%%%%%%%%%%%%%%#$$$$#%#++++#%%%%%%%%%%%%%%%%%%%%#$$$$##+++#%%%%%%%%%%%%",
"%%%%%%%%%#$$$#%#+++#%%%%%%%%%%%%%%%%%%%%#$$$#%%#+++#%%%%%%%%%%%%%%%%%%%%#$$$#%%#+++#%%%%%%%%%%%%%%%%%%%%%#$$$#%#+++#%%%%%%%%%%%%"
};
