/* XPM */
static char *_3839fe5e8d54111a98a57c3cf722514a6dtFIbdFAtkYJwJ[] = {
/* columns rows colors chars-per-pixel */
"192 32 6 1 ",
"  c None",
". c #04193F",
"X c #780BF7",
"o c #D840FB",
"O c #F489F6",
"+ c #FCFEFE",
/* pixels */
"                                                                                                                                                                                                ",
"                                                                                                                                                                                                ",
"                                                                                                                                                                                                ",
"                                                                                                                                                                                                ",
"                                                                         ....   ...                                                       ..     ..                      ...                    ",
"          ...    ...                    ...... ...                      .OOOO. .XXX.                      ...    ...                     .OO.   .XX.                    .OOO.. ...              ",
"         .OOO.  .XXX.                  .OOOOOO.XXX..                    .OOOOO.XXXXX.                    .OOO.  .XXX.                   .OOOO. .XXX.                    .OOOOO.XXX..            ",
"         .OOO.  .XXX.                  .OOOOOooooXXX.                   .OOOOooooXXX.                    .OOO.  .XXX.                   .OOOOO..XXXX.                   .OOOOooooXXX.           ",
"         .OOOO...XXX.                   ..ooOOOOoooXX.                   .oOOOOOoooXX.                   .OOOO...XXX.                    .OOOooooXXX.                    .ooOOOOoooXX.          ",
"         .OOOooooXXXX.                  .oOOOOOOOoooX.                  .oOOOOOOOoooX.                   .OOOooooXXXX.                   .oOOOOOoooXX.                  .oOOOOOOOoooX.          ",
"         .oOOOOOoooXX.                  .OOOOO++++++XX.                 .OOOOO++++++XX.                 .oOOOOOOoooXX.                  .oOOOOOOOoooX.                  .OOOOO++++++XX.         ",
"        .oOOOOOOOoooX.                 .oOOOO++++++++X.                .oOOOO++++++++X.                 .OOOOOOOOoooX.                  .OOOOO++++++XX.                .oOOOO++++++++X.         ",
"        .OOOOO++++++XX.                .OOOO++...+++..X.               .OOOO++...+++..X.                .OOOOO++++++XX.                .oOOOO++++++++X.                .OOOO++...+++..X.        ",
"       .oOOOO++++++++X.                .OOOO+..++.+..+..               .OOOO+..++.+..+..               .oOOOO++++++++X.                .OOOO++...+++..X.               .OOOO+..++.+..+..        ",
"       .OOOO++...+++..X.               .OOOO+..++.+..+..               .OOOO+..++.+..+..               .OOOO++...+++..X.               .OOOO+..++.+..+..               .OOOO+..++.+..+..        ",
"       .OOOO+..++.+..+..               .OOOO+..++.+..+..               .OOOO+..++.+..+..               .OOOO+..++.+..+..               .OOOO+..++.+..+..               .OOOO+..++.+..+..        ",
"       .OOOO+.....+.....               .oOOOO+...+++..X.               .oOOOO+...+++..X.               .OOOO+.....+.....               .OOOO+.....+.....               .oOOOO+...+++..X.        ",
"       .OOOO+.....+.....                .OOOO+++++++++.                 .OOOO+++++++++.                .OOOO+.....+.....               .oOOOO+...+++..X.                .OOOO+++++++++.         ",
"       .oOOOO+...+++..X.                .oOOOOo++++++X. ......          .oOOOOo++++++X.                .oOOOO+...+++..X.                .OOOO+++++++++.                 .oOOOOo++++++X.         ",
"        .OOOO+++++++++.                 .OOOOOOoooXXX...XXXXXX.          .OOOOOoooXXX.                  .OOOO+++++++++.                 .oOOOOo++++++X.                  .OOOOOoooXXX.          ",
"        .oOOOOo++++++X.                .OOOOOOOO+++XXXXXXXXXXX.          .OOOOOO+++XX.                  .oOOOOo++++++X.                  .OOOOOoooXXX.                   .OOOOOO++XX.           ",
"         .OOOOOoooXXX.                .OOOOOXOO++++XXXXXXXXXXX.         .OOOOOO++++XXX.                  .OOOOOoooXXX.                   .OOOOOO++XX.                    .OOOXO++++X.           ",
"         .OOOOO++++XX.                .OOOOXoOO+++++XXXXXXXXX.          .OOOOXO+++++XXX.                 .OOOOOO+++X.                   .OOOOOOO+++X.                    .OOOXO+++++.           ",
"        .OOOOXO+++++X.               .OOOOXooOO+++++XXXXXXXXX.         .OOOOOXO+++++XXXX.               .OOOOOOO++++X.                  .OOOXOO++++XX.                  .OOOOX++++++X.          ",
"        .OOOOX++++++X.               .OOOOXoOOO+++++X....XXX.          .OOOOXoO+++++XXXXX.             .OOOOOOO+++++XX.                .OOOOXOO+++++X.                  .OOOXo++++++X.          ",
"        .OOOOX++++++X.               .OOOXooOOO+++++.    ...           .OOOOXOO+++++.XXXX.            .OOOOOXOO+++++XXX.               .OOOXoOO+++++XX.                 .OOOXo++++++X.          ",
"        .OOOOX++++++.                 ...XoOOOO+++++.                  .OOOXoOOX+++X..XXX.            .OOOOXoOO+++++XXX.               .OOOXoOO+++++XX.                 .OOOXoO++++X.           ",
"        .OOOXo++++++.                    .XXooOX+++X.                   .XXoOOOXooX.. ...             .OOO.ooOOO++++XXX.                ..XooOOX+++XXX.                  .XXooOOooXX.           ",
"         .XXooo++++X.                     .ooOOXooXX.                     .OOOOO.XX.                   ... .OOOOX++X...                   .oOOOXooXX..                   .oooOO..XXXX.          ",
"         .OoooooooXXX.                    .OOOO.XXXX.                      .OOOO.XX.                       .OOOOXoo.                       .OOOO.XXX.                    .OOOOO..XXXX.          ",
"        .OOOOO...XXXXX.                    .....XXXX.                      .OOOO.X.                         .OOOO..                        .OOOO....                     .OOOO. .XXXX.          ",
"        .OOOO.   .XXXX.                         .XXX.                       ....XX.                         .OOOO.                         .OOOO.                        .OOOO.  ....           "
};
