/* XPM */
static char *result[] = {
/* columns rows colors chars-per-pixel */
"32 32 17 1 ",
"  c #1A7A3E",
". c #DF3E23",
"X c #FA6A0A",
"o c #E86A73",
"O c #14A02E",
"+ c #8b4513",
"@ c #F9A31B",
"# c #FFD541",
"$ c #FFFC40",
"% c #477D85",
"& c #588DBE",
"* c #F5A097",
"= c #FAD6B8",
"- c #849BE4",
"; c #B9BFFB",
": c #FEF3C0",
"> c #9CDB43",
/* pixels */
">>>>>>>>>>>>>>>>>>>>>>>>>>>>>>>>",
">>>>>>>>>>>>>>>>>>>>>>>>>>>>>>>>",
">>>>>>>>>>>>>>>>>>>>>>>>>>>>>>>>",
">>>>>>>>>>>>>>>>>>>>>>>>>>>>>>>>",
">>>>>>>>>>>>>>>>>>>>>>>>>>>>>>>>",
">>>>>>>>>>>>        >>>>>>>>>>>>",
">>>>>>>>>>    $$$$    >>>>>>>>>>",
">>>>>>>>>  $$$$$$$$$$  >>>>>>>>>",
">>>>>>>>>  $$$$$$$$$$  >>>>>>>>>",
">>>>>>>>  $$$$$$$$$$$$  >>>>>>>>",
">>>>>>>>  $$$$$$$$$$$$  >>>>>>>>",
">>>>>>>>  $$$$$++$$$$$  >>>>>>>>",
">>>>>>>>  $$$$$++$$$$$  >>>>>>>>",
">>>>>>>  $$$$$$++$$$$$$  >>>>>>>",
">>>>>>>  $$$$$$++$$$$$$  >>>>>>>",
">>>>>>>  $$$$$$++$$$$$$  >>>>>>>",
">>>>>>>  $$$$$$++$$$$$$  >>>>>>>",
">>>>>>>  $$$$$$++$$$$$$  >>>>>>>",
">>>>>>>  $$$$$$++$$$$$$  >>>>>>>",
">>>>>>>>  $$$$$++$$$$$  >>>>>>>>",
">>>>>>>>  $$$$$++$$$$$  >>>>>>>>",
">>>>>>>>  $$$$$$$$$$$$  >>>>>>>>",
">>>>>>>>  $$$$$$$$$$$$  >>>>>>>>",
">>>>>>>>>  $$$$$$$$$$  >>>>>>>>>",
">>>>>>>>>   $$$$$$$$  >>>>>>>>>>",
">>>>>>>>>>>   $$$$   >>>>>>>>>>>",
">>>>>>>>>>>>>      >>>>>>>>>>>>>",
">>>>>>>>>>>>>>>>>>>>>>>>>>>>>>>>",
">>>>>>>>>>>>>>>>>>>>>>>>>>>>>>>>",
">>>>>>>>>>>>>>>>>>>>>>>>>>>>>>>>",
">>>>>>>>>>>>>>>>>>>>>>>>>>>>>>>>",
">>>>>>>>>>>>>>>>>>>>>>>>>>>>>>>>",
};
