/* XPM */
static char *result[] = {
/* columns rows colors chars-per-pixel */
"32 32 9 1 ",
"  c #180A02",
". c #3A220D",
"X c #553518",
"o c #6C4B2D",
"O c #905C07",
"+ c #DC8E11",
"@ c #F9A414",
"# c #FFD63F",
"$ c #9CDB43",
/* pixels */
"       $$$$$$$$$$$$$$$$$$$     $",
"  @@@@                     @@@@ ",
"  @@@.XXXXooooooXooXoooXXXX.@@@ ",
"  ##.XXoooooXoXXoooooooooooX.## ",
"  ##.XXXXoooooooooooXXoXooXX.## ",
"  #.ooooooooooooooooooooooooo.# ",
"  @.XXXooooooooXXXoooooooooXX.@ ",
"  @.Xoooooooooooooooooooooooo.@ ",
"  @.XXooooXXooooooooooXXoooXX.@ ",
"  @.XXXoooooXXoooXXoXoooooooX.@ ",
"  @.XoooooooooooooooooooooooX.@ ",
"  @...XXXoooooooooooooXXooooX.@ ",
"  @.XXoooXXXooooooooooooooXXX.@ ",
"  +..XXooooooXXXXXXXooXXXXX...+ ",
"  +.XXXXXXXXXX#####XXXXXXXXX..+ ",
"  ++..XXXXXXX##@@@##XXXXXXX..++ ",
"  +++++++++++#@   @#+++++++++++ ",
"  O..........#++ ++#..........O ",
"  O..XXXXXXX.##+++##.XXXXXXX..O ",
"  #.XXooooooX.#####.XooXXooXX.# ",
"  @.XoooooXXXX.....XooooooooX.@ ",
"  @.XXXXooooooXXXXXooXXooooXX.@ ",
"  @.XXXoooXXooooooooooooXXXXX.@ ",
"  @...XXXXXXXXXXXXXXXXXXXXXX..@ ",
"  @.....XX..XX.......XX.......@ ",
"  ++.........................++ ",
"+++                         +++ ",
"    $$$$$$$$$$$$$$$$$$$$$$$     ",
"$$$$$$$$$$$$$$$$$$$$$$$$$$$$$$$$",
"$$$$$$$$$$$$$$$$$$$$$$$$$$$$$$$$",
"$$$$$$$$$$$$$$$$$$$$$$$$$$$$$$$$",
"$$$$$$$$$$$$$$$$$$$$$$$$$$$$$$$$"
};
