/* XPM */
static char *result[] = {
/* columns rows colors chars-per-pixel */
"32 32 9 1 ",
"  c #180A02",
". c #3A220D",
"X c #553518",
"o c #6C4B2D",
"O c #905C07",
"+ c #DC8E11",
"@ c #F9A414",
"# c #FFD63F",
"$ c None",
/* pixels */
"     $$$$$$$$$$$$$$$$$$$$$     $",
"@@@@                       @@@@ ",
"@@@.XXXXooooooooXooXoooXXXX.@@@@",
"##.XXoooooXoXXoooooooooooooX.###",
"##.XXXXoooooooooooooXXoXooXX.###",
"#.ooooooooooooooooooooooooooo.##",
"@.XXXooooooooooXXXoooooooooXX.@#",
"@.Xoooooooooooooooooooooooooo.@@",
"@.XXooooXXooooooooooooXXoooXX.@@",
"@.XXXoooooooXXoooXXoXoooooooX.@@",
"@.XoooooooooooooooooooooooooX.@@",
"@...XXXoooooooooooooooXXooooX.@@",
"@.XXooooXXXoooooooooooooooXXX.@@",
"+..XXoooooooXXXXXXXooXXoXXX...+@",
"+.XXXXXXXXXXX#####XXXXXXXXXX..+@",
"++..XXXXXXXX##@@@##XXXXXXXX..+++",
"++++++++++++#@   @#+++++++++++++",
"O...........#++ ++#...........OO",
"O..XXXXXXXX.##+++##.XXXXXXXX..OO",
"#.XXoooooooX.#####.XooXXXooXX.##",
"@.XooooooXXXX.....XoooooooooX.@#",
"@.XXXXoooooooXXXXXooXXXooooXX.@@",
"@.XXXooooXXoooooooooooooXXXXX.@@",
"@...XXXXXXXXXXXXXXXXXXXXXXXX..@@",
"@.....XXX..XX.......XX........@+",
"++...........................+++",
"+++                         ++++",
"    $$$$$$$$$$$$$$$$$$$$$$$     ",
"$$$$$$$$$$$$$$$$$$$$$$$$$$$$$$$$",
"$$$$$$$$$$$$$$$$$$$$$$$$$$$$$$$$",
"$$$$$$$$$$$$$$$$$$$$$$$$$$$$$$$$",
"$$$$$$$$$$$$$$$$$$$$$$$$$$$$$$$$"
};
